<?xml version="1.0" encoding="iso-8859-1"?>
<!-- Generator: Adobe Illustrator 19.0.0, SVG Export Plug-In . SVG Version: 6.00 Build 0)  -->
<svg version="1.1" id="Layer_1" xmlns="http://www.w3.org/2000/svg" xmlns:xlink="http://www.w3.org/1999/xlink" x="0px" y="0px"
	 viewBox="0 0 512 512" style="enable-background:new 0 0 512 512;" xml:space="preserve">
<g>
	<path style="fill:#FBD971;" d="M512,256c0,141.383-114.617,256-256,256S0,397.383,0,256S114.617,0,256,0S512,114.617,512,256"/>
	<g>
		<path style="fill:#E57E25;" d="M282.483,370.759h-97.103c-4.882,0-8.828-3.946-8.828-8.828c0-4.882,3.946-8.828,8.828-8.828
			h97.103c19.474,0,35.31-15.837,35.31-35.31c0-4.882,3.946-8.828,8.828-8.828s8.828,3.946,8.828,8.828
			C335.448,347.004,311.693,370.759,282.483,370.759"/>
		<path style="fill:#E57E25;" d="M393.25,145.353c-2.26,0-4.52-0.865-6.241-2.586c-8.43-8.43-20.427-12.023-32.124-9.622
			c-4.82,0.962-9.446-2.092-10.425-6.859c-0.989-4.776,2.083-9.446,6.859-10.434c17.505-3.619,35.522,1.783,48.172,14.433
			c3.452,3.452,3.452,9.031,0,12.482C397.77,144.488,395.51,145.353,393.25,145.353"/>
		<path style="fill:#E57E25;" d="M118.863,145.353c-2.26,0-4.52-0.865-6.241-2.586c-3.452-3.443-3.452-9.031,0-12.482
			c12.606-12.615,30.561-18.026,48.031-14.46c4.776,0.971,7.865,5.632,6.894,10.408c-0.971,4.785-5.632,7.874-10.408,6.886
			c-11.661-2.348-23.623,1.236-32.035,9.649C123.382,144.488,121.122,145.353,118.863,145.353"/>
		<path style="fill:#E57E25;" d="M185.379,203.034c-4.882,0-8.828-3.946-8.828-8.828c0-14.601-11.882-26.483-26.483-26.483
			c-14.601,0-26.483,11.882-26.483,26.483c0,4.882-3.946,8.828-8.828,8.828c-4.882,0-8.828-3.946-8.828-8.828
			c0-24.338,19.8-44.138,44.138-44.138s44.138,19.8,44.138,44.138C194.207,199.089,190.261,203.034,185.379,203.034"/>
		<path style="fill:#E57E25;" d="M397.241,203.034c-4.882,0-8.828-3.946-8.828-8.828c0-14.601-11.882-26.483-26.483-26.483
			s-26.483,11.882-26.483,26.483c0,4.882-3.946,8.828-8.828,8.828s-8.828-3.946-8.828-8.828c0-24.338,19.8-44.138,44.138-44.138
			s44.138,19.8,44.138,44.138C406.069,199.089,402.123,203.034,397.241,203.034"/>
	</g>
	<g>
		<path style="fill:#FB7B76;" d="M97.103,273.655c0,14.627-11.855,26.483-26.483,26.483s-26.483-11.855-26.483-26.483
			s11.855-26.483,26.483-26.483S97.103,259.028,97.103,273.655"/>
		<path style="fill:#FB7B76;" d="M467.862,273.655c0,14.627-11.855,26.483-26.483,26.483c-14.627,0-26.483-11.855-26.483-26.483
			s11.855-26.483,26.483-26.483C456.007,247.172,467.862,259.028,467.862,273.655"/>
	</g>
</g>
<g>
</g>
<g>
</g>
<g>
</g>
<g>
</g>
<g>
</g>
<g>
</g>
<g>
</g>
<g>
</g>
<g>
</g>
<g>
</g>
<g>
</g>
<g>
</g>
<g>
</g>
<g>
</g>
<g>
</g>
</svg>
