<?xml version="1.0" encoding="iso-8859-1"?>
<!-- Generator: Adobe Illustrator 19.0.0, SVG Export Plug-In . SVG Version: 6.00 Build 0)  -->
<svg version="1.1" id="Layer_1" xmlns="http://www.w3.org/2000/svg" xmlns:xlink="http://www.w3.org/1999/xlink" x="0px" y="0px"
	 viewBox="0 0 512 512" style="enable-background:new 0 0 512 512;" xml:space="preserve">
<circle style="fill:#F2CF61;" cx="256" cy="256" r="256"/>
<path style="fill:#D9B957;" d="M509,295.28l-78.136-194.544C427.764,91.06,418.668,84,408,84h-16H104c-13.2,0-24,10.8-24,24v2.048
	v2.048V288v4l6.856,12L80,376c-0.28,2.772-0.72,8.428,0.876,13.556l30.848,77.916C152.808,495.556,202.476,512,256,512
	C384.024,512,490.092,418.016,509,295.28z"/>
<path style="fill:#263740;" d="M80,288V108c0-13.2,10.8-24,24-24h304c13.2,0,24,10.8,24,24v180H80z"/>
<path style="fill:#1E2C33;" d="M408,84h-16c13.2,0,24,10.8,24,24v180h16V108C432,94.8,421.2,84,408,84z"/>
<path style="fill:#406A80;" d="M432,376l-8-84l-20-8l-12-116c-2.82-23.356-17.172-36-40-36h-96h-96c-22.828,0-37.18,12.644-40,36
	l-12,116l-20,8l-8,84c-0.584,5.764-1.948,24,16,24h160h160C433.944,400,432.584,381.764,432,376z"/>
<path style="fill:#395F73;" d="M432,376l-8-84l-20-8l-12-116c-2.82-23.356-17.172-36-40-36h-24c22.828,0,37.18,12.644,40,36l12,116
	l20,8l8,84c0.584,5.764,1.944,24-16,24h24C433.944,400,432.584,381.764,432,376z"/>
<rect x="204" y="284" style="fill:#263740;" width="104" height="92"/>
<g>
	<path style="fill:#242424;" d="M308,380H204c-2.208,0-4-1.788-4-4v-92c0-2.212,1.792-4,4-4h104c2.212,0,4,1.788,4,4v92
		C312,378.212,310.212,380,308,380z M208,372h96v-84h-96V372z"/>
	<rect x="204" y="312" style="fill:#242424;" width="104" height="8"/>
	<rect x="204" y="344" style="fill:#242424;" width="104" height="8"/>
</g>
<g>
	<path style="fill:#661D15;" d="M108,400v24c0,10.872,11.28,12,24,12s24-0.48,24-12v-24H108z"/>
	<path style="fill:#661D15;" d="M356,400v24c0,10.872,11.28,12,24,12s24-0.48,24-12v-24H356z"/>
</g>
<path style="fill:#C2E2F2;" d="M386.672,272l-10.564-102.084C374.28,154.76,366.848,148,352,148H160
	c-14.848,0-22.284,6.76-24.084,21.648L125.328,272H386.672z"/>
<path style="fill:#FFD464;" d="M388,327.988C388,341.264,377.28,352,364,352s-24-10.736-24-24.012C340,314.78,350.72,304,364,304
	S388,314.78,388,327.988z"/>
<path style="fill:#242424;" d="M364,356c-15.436,0-28-12.568-28-28.012C336,312.556,348.564,300,364,300s28,12.556,28,27.988
	C392,343.432,379.436,356,364,356z M364,308c-11.028,0-20,8.964-20,19.988c0,11.036,8.972,20.012,20,20.012s20-8.976,20-20.012
	C384,316.964,375.028,308,364,308z"/>
<path style="fill:#FFD464;" d="M172,327.988C172,341.264,161.28,352,148.004,352C134.72,352,124,341.264,124,327.988
	C124,314.78,134.72,304,148.004,304C161.28,304,172,314.78,172,327.988z"/>
<path style="fill:#242424;" d="M148.004,356C132.564,356,120,343.432,120,327.988C120,312.556,132.564,300,148.004,300
	C163.44,300,176,312.556,176,327.988C176,343.432,163.44,356,148.004,356z M148.004,308C136.976,308,128,316.964,128,327.988
	c0,11.036,8.976,20.012,20.004,20.012c11.024,0,19.996-8.976,19.996-20.012C168,316.964,159.028,308,148.004,308z"/>
<g>
	<path style="fill:#F5F5F5;" d="M168,180c-1.024,0-2.048-0.392-2.828-1.172c-1.564-1.564-1.564-4.092,0-5.656l12-12
		c1.564-1.564,4.092-1.564,5.656,0s1.564,4.092,0,5.656l-12,12C170.048,179.608,169.024,180,168,180z"/>
	<path style="fill:#F5F5F5;" d="M172,204c-1.024,0-2.048-0.392-2.828-1.172c-1.564-1.564-1.564-4.092,0-5.656l32-32
		c1.564-1.564,4.092-1.564,5.656,0s1.564,4.092,0,5.656l-32,32C174.048,203.608,173.024,204,172,204z"/>
</g>
<g>
	<path style="fill:#263740;" d="M248,236.04l-56,8c-2.184,0.312-3.704,2.34-3.392,4.528c0.284,1.996,1.996,3.432,3.952,3.432
		c0.188,0,0.38-0.012,0.572-0.04l14.152-2.024L171.436,272h15.26l39.964-24.592c0.12-0.076,0.188-0.196,0.3-0.276l22.172-3.168
		c2.184-0.312,3.704-2.34,3.392-4.528S250.208,235.748,248,236.04z"/>
	<path style="fill:#263740;" d="M336,236.04l-56,8c-2.184,0.312-3.704,2.34-3.392,4.528c0.284,1.996,1.992,3.432,3.956,3.432
		c0.188,0,0.376-0.012,0.576-0.04l14.144-2.024L259.436,272h15.252l39.964-24.592c0.116-0.076,0.188-0.196,0.296-0.276l22.176-3.168
		c2.184-0.312,3.704-2.34,3.392-4.528C340.212,237.248,338.208,235.748,336,236.04z"/>
</g>
<g>
</g>
<g>
</g>
<g>
</g>
<g>
</g>
<g>
</g>
<g>
</g>
<g>
</g>
<g>
</g>
<g>
</g>
<g>
</g>
<g>
</g>
<g>
</g>
<g>
</g>
<g>
</g>
<g>
</g>
</svg>
